<?xml version="1.0" encoding="utf-8"?>
<!-- Generator: Adobe Illustrator 22.0.0, SVG Export Plug-In . SVG Version: 6.00 Build 0)  -->
<svg version="1.1" id="Layer_1" xmlns="http://www.w3.org/2000/svg" xmlns:xlink="http://www.w3.org/1999/xlink" x="0px" y="0px"
	 viewBox="0 0 250.8 98.6" style="enable-background:new 0 0 250.8 98.6;" xml:space="preserve">
<style type="text/css">
	.st0{fill:#656B8D;}
	.st1{fill:#74AFCD;}
</style>
<g>
	<g>
		<path class="st0" d="M111.9,7.6c0-0.3,0.2-0.6,0.5-0.6l6.6-0.5c0.4,0,0.7,0.1,0.9,0.5l11.3,20.8l0.2,0l7.6-22.3
			c0.1-0.4,0.4-0.6,0.8-0.6l6.5-0.5c0.3,0,0.6,0.2,0.6,0.5l3,36.7c0,0.3-0.2,0.6-0.5,0.6l-6.3,0.5c-0.3,0-0.6-0.2-0.6-0.5L141,20.6
			l-0.2,0l-5.7,16.5c-0.2,0.5-0.5,0.8-1,0.8l-3.8,0.3c-0.5,0-0.9-0.2-1.1-0.6l-8.3-15.4l-0.2,0l1.8,21.3c0,0.3-0.2,0.6-0.5,0.6
			l-6.3,0.5c-0.3,0-0.6-0.2-0.6-0.5L111.9,7.6z"/>
		<path class="st0" d="M169.1,40.2c-0.3,0-0.6-0.2-0.6-0.5l-1.2-14.5L154.3,4c-0.1-0.3,0-0.6,0.3-0.6l7.2-0.6c0.4,0,0.7,0.1,0.9,0.5
			l8,13.2l0.2,0l5.7-14.3c0.1-0.4,0.4-0.6,0.8-0.6l7-0.6c0.4,0,0.6,0.2,0.4,0.5l-9.3,23.1l1.2,14.5c0,0.3-0.2,0.6-0.5,0.6
			L169.1,40.2z"/>
	</g>
	<g>
		<path class="st1" d="M95.8,44.4c-2.7-3.9-6.8-7-11.8-9.1c-5.9-2.5-13.4-3.6-22.1-3.5c-7.6,0.1-16.1,1.3-24.7,3.4
			c-11.4,2.8-22.1,7.1-29.9,11.6c-1.5,0.9-1.7,2.9-0.5,4.1c0,0,0,0,0,0c0.8,0.9,2.2,1.1,3.2,0.4c7.2-4.3,17.6-8.4,28.4-11
			c17.5-4.3,33.4-4.5,43.4-0.3c8.7,3.6,13,10,13,19.7c0,12-4.6,19.6-8.4,23.8c-4.4,4.8-10.3,7.9-15.5,8.2c-2.6,0.1-7-0.5-7.4-5.3
			c-0.1-1.8-1.9-2.9-3.6-2.3c-1.2,0.4-1.9,1.7-1.7,3c0.6,6.4,5.7,10.2,12.9,10l0.8-0.1c6.4-0.5,13.2-4.1,18.4-9.9
			c3-3.3,5.4-7.2,7-11.5c1.8-4.8,2.7-10.2,2.8-15.8C100.3,53.9,98.8,48.6,95.8,44.4z"/>
		<path class="st1" d="M63.3,44.4c-0.1,0.4-10.1,34.3-8.8,49.2c0.1,1.4-0.9,2.8-2.5,2.9c-1.4,0.1-2.8-1-2.9-2.5
			c-1.3-16,8.6-49.7,9-51.1c0.4-1.5,1.9-2.3,3.3-1.9C62.8,41.5,63.7,43,63.3,44.4z"/>
		<path class="st1" d="M105.3,87.1c-1.7-1.7-3.7-5.1-3-10.7c0.6-5.5,2.9-11,6.5-15.4c3.2-3.9,7.3-6.6,10.7-7.3
			c3.2-0.6,5.8,0.5,7.2,3.1c1.6,3.2,0.9,8.2-1.8,13.1c-1.8,3.1-4.3,5.9-7.2,8c-2.9,2.1-6.1,3.4-9.5,3.9c1.8,3.3,5.6,3.9,9.1,3.6
			c5.1-0.4,9.7-3,13.6-7.7c3.1-3.7,4.7-7.2,4.7-7.2c0.6-1.4,2.2-2.1,3.6-1.5c1.3,0.6,2,2.2,1.4,3.5c-0.1,0.2-1.8,4.3-5.4,8.5
			c-4.9,5.8-10.9,9.2-17.4,9.7C112.4,91.2,108,89.9,105.3,87.1z M120.5,59c-1.7,0.3-4.7,1.9-7.5,5.4c-2.9,3.5-4.7,7.7-5.3,12
			c5.2-1,9.8-4.3,12.5-9.2c2-3.5,2.3-6.7,1.7-7.9c0-0.2-0.2-0.4-0.9-0.4C120.8,58.9,120.6,58.9,120.5,59z"/>
		<path class="st1" d="M138.1,84.4c-1.7-1.7-3.7-5.1-3-10.7c0.6-5.5,2.9-11,6.5-15.4c3.2-3.9,7.3-6.6,10.7-7.3
			c3.2-0.6,5.8,0.5,7.2,3.1c1.6,3.2,0.9,8.2-1.8,13.1c-1.8,3.1-4.3,5.9-7.2,8c-2.9,2.1-6.1,3.4-9.5,3.9c1.8,3.3,5.6,3.9,9.1,3.6
			c5.1-0.4,9.7-3,13.6-7.7c3.1-3.7,4.7-7.2,4.7-7.2c0.6-1.4,2.2-2.1,3.6-1.5c1.3,0.6,2,2.2,1.4,3.5c-0.1,0.2-1.8,4.3-5.4,8.5
			c-4.9,5.8-10.9,9.2-17.4,9.7C145.2,88.5,140.8,87.2,138.1,84.4z M153.3,56.3c-1.7,0.3-4.7,1.9-7.5,5.4c-2.9,3.5-4.7,7.7-5.3,12
			c5.2-1,9.8-4.3,12.5-9.2c2-3.5,2.3-6.7,1.7-7.9c0-0.2-0.2-0.4-0.9-0.4C153.6,56.2,153.4,56.2,153.3,56.3z"/>
		<path class="st1" d="M237.8,62.5c0.6,7.2-1.9,11.8-4,14.3c-2.6,3-6.3,5-10.2,5.3c-2.3,0.2-4.6-0.3-6.4-1.4
			c-2.1-1.3-3.3-3.2-3.5-5.6c-0.1-1.5,0.9-2.8,2.5-2.9c1.5-0.1,2.8,0.9,2.9,2.5c0.2,1.9,2.7,2.2,4.1,2.1c2.5-0.2,4.9-1.5,6.6-3.5
			c2.1-2.5,3.1-6.1,2.7-10.4c-0.3-4.1-3.7-6.6-7.2-9.2l-2.7-1.9c-3.7,9-12.5,31.6-23.1,32.5c-3.7,0.3-5.8-1.4-7-2.8
			c-1.1-1.5-1.9-3.4-2.2-6c-1.4,2.3-3.1,4.2-4.7,5.9c-1.9,1.9-3.9,3.2-5.9,4c-1,0.4-2.1,0.7-3.1,0.8c-1.1,0.1-2,0-2.9-0.2
			c-2.6-0.7-4.5-2.7-5.6-5.5c-0.9-2.6-1-5.8-0.3-9.6c1.1-6,4.1-11.7,8.3-16.2c4-4.3,8.3-6.5,11.8-6c1.1,0.2,3.9,1,4.8,4.8
			c2.5-10.8,6.3-22.4,9-30.5c0.5-1.4,2-2.1,3.4-1.7c1.5,0.5,2.2,2.1,1.7,3.4c-4.5,13.2-7.5,23.7-9.4,32.1c-1.2,5.6-1.9,10.2-2,13.8
			c-0.1,4.9,0.7,6.8,1.3,7.5c0.3,0.4,0.9,0.9,2.2,0.8c7.3-0.6,19.8-28.7,19.4-33.2c-0.1-1.3,0.8-2.6,2.2-2.9c1.3-0.2,2.7,0.6,3,1.9
			c0.5,1.5,2.6,3,4.8,4.6C232.2,52.4,237.2,55.9,237.8,62.5z M191.2,59.8c-0.5,0.3-1,0.4-1.6,0.3c-1.4-0.1-2.5-1.5-2.3-2.9
			c0.2-1.9,0-2.7-0.2-2.9c-0.1-0.2-0.1-0.3-0.3-0.2c-1-0.2-3.8,0.9-7,4.3C176.5,62,174,67,173,71.9c-0.9,4.7-0.1,8.3,2,8.8
			c1.4,0.3,3.7-0.3,6.7-3.2c2.4-2.4,6-7.1,9.1-15.9c0-0.1,0.1-0.2,0.2-0.3C191,60.8,191.1,60.3,191.2,59.8z"/>
	</g>
</g>
</svg>
