<?xml version="1.0" encoding="utf-8"?>
<!-- Generator: Adobe Illustrator 22.0.0, SVG Export Plug-In . SVG Version: 6.00 Build 0)  -->
<svg version="1.1" id="Layer_1" xmlns="http://www.w3.org/2000/svg" xmlns:xlink="http://www.w3.org/1999/xlink" x="0px" y="0px"
	 viewBox="0 0 250.8 98.6" style="enable-background:new 0 0 250.8 98.6;" xml:space="preserve">
<style type="text/css">
	.st0{fill:#75AECC;}
	.st1{fill:#7A7A7A;}
</style>
<g>
	<g>
		<path class="st0" d="M9.1,0.4c0.3,0,0.6,0,0.9,0c0.4,0.2,0.8,0.4,0.7,1.1c-0.4-0.1-1-0.6-1.5-0.2C8.9,1.5,9,2.4,9.4,2.5
			c0.6,0.3,1-0.4,1.5-0.3c0,0.7-0.6,0.9-1.1,1.2c0.6,2.9,1.2,6.1,1.8,9.1c0.2,1,0.5,2,0.6,3c0.1,1.7,0,3.4,0,5.1c0,1.7,0,3.4,0,5.1
			c0.5,0,1.2-0.1,1.7,0c0,1.8-0.6,3-1.6,3.8c0,2.5,0,5.1,0,7.6c0.5,0,1.2-0.1,1.6,0c0.1,1.3-0.4,2.4-1,3.1c-0.3,0.3-0.6,0.5-0.7,0.7
			c-0.1,0.3,0,0.9,0,1.4c0,3.3,0,6.6,0,9.8c-2,1.9-3.6,4.4-5,6.9c-0.1,0.1-0.1,0.5-0.4,0.4c-0.2-6.1,0-12.5-0.1-18.7
			c-1-0.8-2-2-1.6-3.8c0.5,0,1.1,0,1.6,0c0-2.6,0-5.2,0-7.8C5.7,28.5,5,27.4,5,25.6c0.6,0,1.1,0,1.7,0c0-1.7,0-3.4,0-5
			c0-1.7-0.2-3.4,0-5.1c0.1-1,0.4-2.1,0.6-3.1c0.6-3.1,1.3-6.2,1.8-9.1C8.4,3,7.8,2,8.2,1.1C8.4,0.7,8.8,0.5,9.1,0.4z"/>
		<path class="st0" d="M50.8,0.4c0.2,0,0.4,0,0.6,0c0.4,0.2,0.8,0.4,0.8,1.1c-0.5-0.1-0.9-0.6-1.4-0.2c-0.4,0.2-0.3,1.1,0.1,1.3
			c0.6,0.3,1-0.3,1.5-0.3c-0.1,0.7-0.6,0.9-1.1,1.1c0.6,2.9,1.2,6,1.8,9c0.2,1,0.5,2,0.6,3c0.2,1.7,0,3.4,0,5.2c0,1.7,0,3.4,0,5.2
			c0.5,0,1.2-0.1,1.6,0c0,1.4-0.3,2.5-1,3.3c-0.2,0.2-0.5,0.3-0.6,0.5c-0.1,0.5,0,1.3,0,1.9c0,2,0,3.8,0,5.7c0.5,0,1.1,0,1.6,0
			c0,1.2-0.2,2-0.7,2.8c-0.2,0.3-0.9,0.8-1,1.1c-0.2,0.5,0,1.6,0,2.3c0,5.4,0.1,11.3-0.1,16.3c-0.3-0.2-0.4-0.6-0.6-1
			c-1.1-2-2.3-4.1-3.9-5.7c-0.2-0.2-0.8-0.6-0.8-0.8c-0.1-0.3,0-0.9,0-1.4c0-3,0-5.6,0-8.5c0-0.5,0.1-1.1,0-1.4
			c-0.1-0.2-0.4-0.4-0.6-0.6c-0.7-0.7-1.3-1.8-1-3.2c0.5,0,1.1,0,1.6,0c0-2.6,0-5.1,0-7.7c-1-0.7-1.7-1.8-1.7-3.6c0.6,0,1.2,0,1.7,0
			c0-1.7,0-3.4,0-5.1c0-1.7-0.1-3.4,0-5.1c0.1-1,0.4-2,0.6-3c0.6-3,1.3-6.2,1.8-9.1c-0.7-0.3-1.4-1.1-1-2.1
			C49.9,0.8,50.3,0.6,50.8,0.4z"/>
		<path class="st0" d="M30.2,40.6c-0.1,0.3-0.4,0.3-0.4,0.6c-0.1,0.4,0.1,0.6,0.4,0.7c0.3,0.1,0.6-0.2,0.9-0.2
			c0,0.3-0.5,0.6-0.3,1.1c0.1,0.2,0.2,0.2,0.3,0.4c0,0.4,0,0.8,0,1.2c1,0.3,2.3,0.2,2.9,0.9c-0.2,0.3-0.7,0.3-1.1,0.4
			c-1.8,0.3-4.7,0.3-6.3-0.3c0.1-0.5,0.8-0.5,1.3-0.7c0.5-0.1,1.1-0.2,1.6-0.2c0.1-0.4-0.1-0.7,0-1.1c0.1-0.3,0.4-0.6,0.3-0.9
			c0-0.3-0.4-0.3-0.5-0.6C29,41.1,29.4,40.4,30.2,40.6z"/>
		<path class="st0" d="M30.5,46.2c3.6,0.3,6.4,2.5,8.2,4.6c2,2.4,3.5,5.2,4.5,8.3c0.3,0,0.5,0,0.8,0c-0.8-5.8-4.3-9.6-8.3-12.4
			c-0.1-0.1-0.4-0.1-0.3-0.3c0.3-0.1,0.5,0.1,0.7,0.1c3.8,1.1,7.1,2.9,9.8,5.2c2.9,2.4,5.3,5.5,6.7,9.3c-15,0-29.9,0-44.9,0
			c1.2-3.8,3.7-6.6,6.5-8.9c2.8-2.3,6.1-4.3,9.7-5.5c0,0.3-0.3,0.5-0.5,0.7c-3.2,3-6,6.6-7.3,11.6c0.3,0.1,0.8,0,1.1,0
			c1.1-3,2.4-5.9,4.3-8.2c1.8-2.2,4.2-4.2,8-4.5c0,4.3,0,8.5,0,12.8c0.2,0.1,0.7,0,1,0c0-4.3,0-8.6,0-12.8
			C30.4,46.3,30.4,46.2,30.5,46.2z"/>
		<path class="st0" d="M14.4,62.5c1,0,2.1,0,3.1,0c0.1,2.2,0,4.6,0,6.9c1.3,0.1,2.8,0,4.1,0c0,0.9,0,1.7,0,2.6c-2.4,0-4.9,0-7.3,0
			c0-3.1,0-6.3,0-9.4C14.3,62.6,14.3,62.5,14.4,62.5z"/>
		<path class="st0" d="M26.1,62.6c1.1-0.1,2.3,0,3.4,0c1.2,3.2,2.4,6.3,3.6,9.6c-0.6,0-1.2,0-2,0c-0.7,0-1.5,0.2-1.9,0
			C29,72,29,71.6,28.8,71.6c-1,0-2,0-3,0c-0.2,0.1-0.2,0.4-0.3,0.5c-0.6,0-1.1,0-1.8,0c-0.5,0-1.4,0.2-1.7-0.1
			c-0.2-0.2,0.3-1.4,0.5-1.8c0.7-1.8,1.4-3.9,2-5.5c0.8,0,1.7,0,2.5,0C26.7,64,26.4,63.3,26.1,62.6z M26.5,68.9c0.5,0,1.1,0.1,1.5,0
			c-0.3-0.7-0.5-1.6-0.8-2.3C27,67.3,26.7,68.1,26.5,68.9z"/>
		<path class="st0" d="M33.3,62.5c2.6,0,5.1,0,7.7,0c1.1,0,2.4-0.1,3.1,0.2c0.7,0.3,1.3,1.1,1.4,2c0.3,2-0.2,5.2,0,7.3
			c-1.1,0-2.2,0-3.4,0c0-1.6,0-3.3,0-5c0-0.5,0.1-1.3-0.1-1.5c-0.2-0.2-1.1-0.1-1.4-0.1c-1.5,0-3,0-4.4,0c0,2.2,0,4.4,0,6.6
			c-0.9,0-2,0.1-2.8,0c-0.2-0.6-0.1-1.4-0.1-2.2c0-2.3,0-4.8,0-7.1C33.3,62.6,33.3,62.5,33.3,62.5z"/>
		<path class="st0" d="M58.6,62.5c0,0.9,0,1.7,0,2.6c-2.1-0.1-3.7-0.1-4.3,1.2c-0.2,0.6-0.3,1.4-0.1,1.9c0.5,1.6,2.4,1.5,4.4,1.5
			c0,0.8,0.1,1.7,0,2.4c-2.3,0-4.2,0.2-5.6-0.6c-1.4-0.7-2.2-2.1-2.1-4.2C50.8,63.1,53.9,62.2,58.6,62.5z"/>
		<path class="st0" d="M1.6,62.6c1.5,0.1,3.2-0.1,4.5,0.1c0,0.2,0.1,0.6-0.1,0.6c-0.2,0.1-0.3,0.1-0.4,0.4c-0.1,0.4,0,1.2,0,1.8
			c0,1.2,0,2.5,0,3.7c0,0.7-0.1,1.4,0,1.8c0.1,0.4,0.8,0.5,0.5,1.1c-1.4,0.1-3,0-4.5,0c0-0.2,0-0.5,0-0.7c0.3,0,0.4-0.1,0.5-0.3
			c0.1-2,0.1-4.6,0-6.7c0-0.5,0.1-1-0.5-1C1.6,63.1,1.6,62.8,1.6,62.6z"/>
		<path class="st0" d="M7.3,62.6c1,0,2,0,3,0c-0.1,1.2,0.5,1.7,1.1,2.4c1.1,1.3,2.6,2.5,2.5,4.8c0,1.2-1,2.2-2.2,2.4
			c-1.4,0.2-3.3-0.1-5,0c0-0.8,0-1.6,0-2.4c0.7-0.3,3.2,0.4,3.6-0.3c0.4-0.9-1-2.2-1.4-2.6c-1-1.1-1.9-2-1.8-3.9
			C7.2,62.7,7.2,62.6,7.3,62.6z"/>
		<path class="st0" d="M50.7,62.6c0,0.2,0,0.4,0,0.6c-0.1,0.2-0.4,0.2-0.5,0.4c0,1.7,0,3.8,0,5.6c0,0.6-0.1,1.3,0,1.8
			c0.1,0.4,0.8,0.5,0.5,1.1c-1.5,0-3,0-4.5,0c0-0.2,0-0.4,0-0.6c0.1-0.2,0.4-0.1,0.5-0.4c0-1.7,0-3.8,0-5.6c0-0.9,0.3-2.1-0.5-2.2
			c0-0.2-0.1-0.5,0-0.6C47.7,62.6,49.2,62.6,50.7,62.6z"/>
		<path class="st0" d="M37.8,65.7c1,0,2,0,3,0c0,2.1,0,4.3,0,6.4c-1,0-2,0-3,0c0-2.1,0-4.2,0-6.3C37.8,65.8,37.8,65.7,37.8,65.7z"/>
		<path class="st0" d="M5.2,73.5c16.5,0,33.1,0,49.6,0C54,80.7,51.2,85.9,47.1,90c-3,3-6.9,5.1-11.9,6.3C33.6,96.6,31.7,97,30,97
			c-3.6-0.1-7.1-1-9.9-2.2c-7-2.9-11.7-8.6-14-16.2c-0.5-1.5-0.9-3.4-1-5C5.1,73.6,5.1,73.5,5.2,73.5z M37,94.1
			c8.8-2.9,14.1-9.4,16.3-18.9c-2.6,0-5.3,0-7.9,0c0,1-0.3,1.7-0.7,2.3c-0.5-0.3-0.9-0.5-1.3-0.9c0.2-0.4,0.3-0.9,0.3-1.4
			c-4.3,0-8.6,0-12.9,0c0,0.6,0.1,1.4,0,2c-0.5,0-1.1,0-1.5,0c0-0.7,0-1.3,0-2c-4.2-0.1-8.6,0-12.8,0c-0.1,0.7,0.1,1.4,0.2,2
			c-0.5,0.1-0.9,0.3-1.5,0.4c-0.3-0.6-0.3-1.4-0.3-2.3c-2.6,0-5.1,0-7.7,0c1.3,10.1,7.2,15.6,15.4,18.7c0.2-0.1-0.1-0.1-0.1-0.1
			c-2-1.9-3.8-4.2-4.8-7c0.5-0.2,0.9-0.4,1.4-0.6c1,2.1,2.3,4.1,3.9,5.7c1.6,1.6,3.5,3,6.3,3.3c0-2.9,0-5.8,0-8.7
			c0.5,0,1.1-0.1,1.6,0c0,2.9-0.1,5.9,0,8.7c5.3-0.9,7.8-4.6,9.8-8.9c0.5,0.3,1,0.5,1.5,0.8C40.8,89.5,39,92.1,37,94.1z"/>
		<path class="st0" d="M19,81.7c1.3,0.1,1.1,1.8,1.1,3.2c-0.6,0-1.3,0-1.9,0c-0.2-0.8,0.3-1.9-0.4-2.2c-0.4-0.2-1,0.1-1.6,0
			c-0.1,0.6,0,1.5,0,2.2c-0.6-0.1-1.5,0.1-2-0.1c-0.2-0.2-0.1-0.5-0.1-0.7c0-1.8,0-3.9,0-5.8c0-0.1,0-0.1,0.1-0.1
			c2.6,0.1,5.7-0.7,5.7,1.9C19.8,80.9,19.5,81.3,19,81.7z M17.6,80.6c0.6-0.6-0.5-1.2-1.4-1c0,0.4,0,0.8,0,1.1
			C16.7,80.7,17.3,80.9,17.6,80.6z"/>
		<path class="st0" d="M26,78.2c0,0.5,0,0.9,0,1.4c-1,0-2,0-3,0c-0.1,0.3,0,0.8,0,1.2c0.9,0,1.7,0,2.6,0c0,0.4,0,0.9,0,1.3
			c-0.9,0-1.7,0-2.6,0c0,0.5,0,0.9,0,1.4c0.9,0.1,2.1,0,3.1,0c0,0.4,0,0.9,0,1.3c-1.8,0-3.6,0-5.4,0c0-2.2-0.1-4.6,0-6.7
			C22.5,78.2,24.3,78.2,26,78.2z"/>
		<path class="st0" d="M27.2,78.2c0.7,0,1.4,0,2.1,0c0,1.7,0,3.5,0,5.2c0.9,0.1,2.1,0,3,0.1c0,0.5,0,0.9,0,1.4c-1.6,0.1-3.4,0-5.1,0
			C27.1,82.7,27.1,80.3,27.2,78.2z"/>
		<path class="st0" d="M32.8,78.2c0.7,0,1.4,0,2.1,0c0,2.2,0,4.5,0,6.7c-0.7,0-1.4,0-2.1,0C32.7,82.7,32.7,80.3,32.8,78.2z"/>
		<path class="st0" d="M41.5,78.2c0,0.5,0,0.9,0,1.4c-1,0-2.1,0-3.1,0c-0.1,0.3,0,0.8,0,1.2c0.9,0,1.7,0,2.6,0c0,0.5,0,1,0,1.5
			c-0.9,0-1.7,0-2.6,0c-0.1,0.4,0,0.9,0,1.3c1.1,0,2.2,0,3.3,0c0,0.4,0,0.9,0,1.3c-1.8,0-3.6,0-5.4,0c0-2.2-0.1-4.6,0-6.7
			C38,78.2,39.7,78.2,41.5,78.2z"/>
		<path class="st0" d="M47.4,78.2c0,0.5,0,0.9,0,1.4c-1,0-2,0-2.9,0c0,0.5,0,0.9,0,1.4c0.7,0.1,1.5,0,2.2,0c0,0.5,0,0.9,0,1.4
			c-0.7,0-1.4,0-2.2,0c-0.1,0.7,0,1.6,0,2.4c-0.7,0.1-1.5,0-2.3,0c-0.1-2.1-0.1-4.6,0-6.7C44,78.2,45.7,78.2,47.4,78.2z"/>
	</g>
</g>
<g>
	<path class="st0" d="M83.8,46.2h-7.5v-28h8.2h0.9c1.8,0,3.3,0.1,4.4,0.3c1.1,0.2,2.1,0.6,3,1c0.7,0.4,1.4,0.8,1.9,1.4
		c0.6,0.5,1.1,1.2,1.5,1.8c0.4,0.7,0.7,1.4,0.9,2.1c0.2,0.8,0.3,1.6,0.3,2.4c0,1.3-0.2,2.5-0.7,3.5c-0.5,1-1.2,1.9-2.3,2.9
		c1.2,0.9,2,1.9,2.5,2.9c0.5,1.1,0.7,2.4,0.7,4v0.7v5h-7.5v-5v-0.7c0-1.4-0.3-2.5-1-3.1c-0.6-0.6-1.7-0.9-3.1-0.9h-0.9v-5.5h0.8
		c1.3,0,2.2-0.3,2.9-0.8c0.7-0.5,1-1.3,1-2.3c0-0.6-0.1-1.1-0.4-1.6c-0.3-0.5-0.7-0.8-1.2-1C87.6,25.2,87,25,86.3,25h-0.9h-1.6V46.2
		z"/>
	<path class="st0" d="M121.2,37v9.2h-6.9v-8.3V37c0-1.3-0.2-2.2-0.5-2.8c-0.3-0.6-0.7-1-1.3-1.3c-0.6-0.3-1.2-0.5-1.8-0.5
		c-1,0-1.9,0.4-2.6,1.1c-0.7,0.8-1.1,1.6-1.1,2.7c0,1,0.4,1.9,1.1,2.6c0.7,0.7,1.6,1.1,2.7,1.1c0.6,0,1.4-0.2,2.3-0.5v7
		c-0.8,0.2-1.5,0.3-2.2,0.3c-1.9,0-3.7-0.5-5.4-1.4c-1.7-0.9-3-2.2-3.9-3.8c-0.9-1.6-1.4-3.4-1.4-5.3c0-1.9,0.5-3.7,1.4-5.3
		c0.9-1.6,2.2-2.9,3.8-3.9c1.6-0.9,3.3-1.4,5.3-1.4c1.9,0,3.7,0.5,5.3,1.4c1.6,0.9,2.9,2.2,3.8,3.8c0.9,1.6,1.4,3.4,1.4,5.2V37z"/>
	<path class="st0" d="M132,46.2h-6.9v-9.3V36c0-1.6,0.1-2.9,0.4-4c0.3-1,0.7-2,1.4-2.9c0.8-1.1,1.9-2,3.3-2.7c1.4-0.6,2.7-1,4.1-1
		c1,0,2,0.2,2.9,0.5c0.8,0.3,1.8,0.8,2.8,1.5c1.1-0.7,2.1-1.2,2.9-1.5c0.8-0.3,1.8-0.4,2.9-0.4c1.5,0,2.9,0.3,4.3,1
		c1.3,0.6,2.4,1.5,3.3,2.7c0.5,0.7,0.8,1.3,1.1,1.9c0.3,0.7,0.5,1.4,0.6,2.2c0.1,0.8,0.2,1.7,0.2,2.7v0.9v9.3h-6.9v-10v-0.9
		c0-2-0.8-3-2.4-3c-1.6,0-2.4,1.1-2.4,3.2v0.7v10h-6.9v-10v-0.7c0-1.1-0.2-1.9-0.6-2.4c-0.4-0.5-1-0.8-1.8-0.8
		c-0.8,0-1.4,0.3-1.8,0.8s-0.6,1.3-0.6,2.4v0.7V46.2z"/>
	<path class="st0" d="M179.2,37v9.2h-6.9v-8.3V37c0-1.3-0.2-2.2-0.5-2.8c-0.3-0.6-0.7-1-1.3-1.3c-0.6-0.3-1.2-0.5-1.8-0.5
		c-1,0-1.9,0.4-2.6,1.1c-0.7,0.8-1.1,1.6-1.1,2.7c0,1,0.4,1.9,1.1,2.6c0.7,0.7,1.6,1.1,2.7,1.1c0.6,0,1.4-0.2,2.3-0.5v7
		c-0.8,0.2-1.5,0.3-2.2,0.3c-1.9,0-3.7-0.5-5.4-1.4c-1.7-0.9-3-2.2-3.9-3.8c-0.9-1.6-1.4-3.4-1.4-5.3c0-1.9,0.5-3.7,1.4-5.3
		c0.9-1.6,2.2-2.9,3.8-3.9c1.6-0.9,3.3-1.4,5.3-1.4c1.9,0,3.7,0.5,5.3,1.4c1.6,0.9,2.9,2.2,3.8,3.8c0.9,1.6,1.4,3.4,1.4,5.2V37z"/>
	<path class="st0" d="M196.2,18.2h6.9v16.9v1.1c0,1.3-0.2,2.5-0.6,3.5c-0.4,1-0.9,2-1.7,3c-1,1.3-2.2,2.2-3.7,2.9
		c-1.4,0.7-3,1-4.6,1c-1.9,0-3.7-0.5-5.3-1.4c-1.6-0.9-2.9-2.2-3.8-3.9c-0.9-1.6-1.4-3.4-1.4-5.3c0-1.9,0.5-3.7,1.4-5.3
		c1-1.6,2.3-2.9,3.9-3.8c1.6-0.9,3.4-1.4,5.4-1.4c0.7,0,1.4,0.1,2.2,0.3v7c-0.9-0.3-1.6-0.5-2.3-0.5c-1.1,0-2,0.3-2.7,1
		c-0.7,0.7-1.1,1.6-1.1,2.6c0,0.7,0.2,1.3,0.5,1.9c0.3,0.6,0.8,1,1.4,1.4c0.5,0.3,1.2,0.5,1.9,0.5c0.7,0,1.3-0.2,1.8-0.5
		c0.6-0.3,1-0.7,1.3-1.3c0.3-0.6,0.5-1.6,0.5-2.8v-0.9V18.2z"/>
	<path class="st0" d="M227.1,37v9.2h-6.9v-8.3V37c0-1.3-0.2-2.2-0.5-2.8c-0.3-0.6-0.7-1-1.3-1.3c-0.6-0.3-1.2-0.5-1.8-0.5
		c-1,0-1.9,0.4-2.6,1.1c-0.7,0.8-1.1,1.6-1.1,2.7c0,1,0.4,1.9,1.1,2.6c0.7,0.7,1.6,1.1,2.7,1.1c0.6,0,1.4-0.2,2.3-0.5v7
		c-0.8,0.2-1.5,0.3-2.2,0.3c-1.9,0-3.7-0.5-5.4-1.4c-1.7-0.9-3-2.2-3.9-3.8c-0.9-1.6-1.4-3.4-1.4-5.3c0-1.9,0.5-3.7,1.4-5.3
		c0.9-1.6,2.2-2.9,3.8-3.9c1.6-0.9,3.3-1.4,5.3-1.4c1.9,0,3.7,0.5,5.3,1.4c1.6,0.9,2.9,2.2,3.8,3.8c0.9,1.6,1.4,3.4,1.4,5.2V37z"/>
	<path class="st0" d="M237.8,36.1v10.1H231v-9.4v-0.7c0-1.5,0.1-2.7,0.3-3.7c0.2-0.9,0.6-1.8,1.1-2.7c0.8-1.3,1.9-2.4,3.3-3.1
		c1.4-0.7,2.9-1.1,4.5-1.1c1.9,0,3.6,0.5,5.1,1.4c1.5,0.9,2.6,2.2,3.3,3.8c0.3,0.7,0.6,1.4,0.7,2.2c0.1,0.7,0.2,1.8,0.2,3.2v0.7v9.4
		h-6.9V36.1v-0.7c0-2.1-0.8-3.1-2.4-3.1c-1.6,0-2.4,1-2.4,3.1V36.1z"/>
</g>
<g>
	<path class="st1" d="M89.3,78.9l-2.5-7.2l-7.6,0.1l-2.7,7.1h-2l7.8-19.5l2.3-0.7l7.3,20.2H89.3z M86.5,70.4l-3.3-9.2l-3.4,9.2H86.5
		z"/>
	<path class="st1" d="M101.2,79.2c-1.4,0-2.6-0.2-3.6-0.7s-1.8-1.2-2.4-2.1s-1.1-2-1.4-3.2c-0.3-1.2-0.4-2.6-0.4-4.2
		c0-1.9,0.3-3.4,0.8-4.7c0.5-1.3,1.2-2.3,2.1-3.1c0.9-0.8,1.8-1.4,2.9-1.7c1.1-0.3,2.2-0.5,3.2-0.5c0.4,0,0.8,0,1.3,0
		c0.5,0,1,0.1,1.4,0.1c0.5,0,0.9,0.1,1.3,0.1c0.4,0,0.7,0.1,1,0.1l-0.7,2.3c-0.3-0.1-0.6-0.2-1.1-0.3s-1-0.2-1.5-0.3
		c-0.5-0.1-1.1-0.2-1.6-0.2s-0.9-0.1-1.3-0.1c-0.8,0-1.4,0.1-2,0.2c-0.6,0.1-1.1,0.4-1.5,0.7c-0.6,0.4-1,1.3-1.2,2.5
		s-0.3,2.8-0.3,4.6c0,2.8,0.4,5,1.2,6.4c0.8,1.5,2.2,2.2,4,2.2c0.5,0,1,0,1.6-0.1c0.6,0,1.1-0.1,1.6-0.2c0.5-0.1,1.1-0.2,1.6-0.3
		c0.5-0.1,1-0.3,1.5-0.4v1c-0.5,0.2-1,0.4-1.5,0.6s-1.1,0.3-1.7,0.4c-0.6,0.1-1.1,0.2-1.7,0.3S101.8,79.2,101.2,79.2z"/>
	<path class="st1" d="M115.3,78.9V60.7l-6.1-0.1l0.2-1.4H124l-0.2,1.4l-5.9,0.2v18.2H115.3z"/>
	<path class="st1" d="M126.8,78.9V59.2h2.7v19.7H126.8z"/>
	<path class="st1" d="M152.4,69c0,1.6-0.2,3-0.6,4.2s-1,2.3-1.8,3.2s-1.8,1.6-3,2c-1.2,0.5-2.6,0.7-4.2,0.7c-1.6,0-3-0.2-4.2-0.7
		s-2.1-1.2-2.9-2.1c-0.7-0.9-1.3-2-1.6-3.2c-0.4-1.2-0.5-2.6-0.5-4.2s0.2-2.9,0.5-4.1c0.4-1.2,0.9-2.3,1.7-3.1s1.7-1.5,2.9-2
		s2.5-0.7,4.1-0.7c1.6,0,3,0.2,4.2,0.7c1.2,0.5,2.2,1.1,3,2c0.8,0.9,1.4,1.9,1.8,3.1C152.2,66.1,152.4,67.4,152.4,69z M149.6,69
		c0-1.3-0.1-2.4-0.4-3.4c-0.3-1-0.7-1.9-1.2-2.7c-0.5-0.7-1.2-1.3-2.1-1.7c-0.8-0.4-1.8-0.6-3-0.6c-1,0-2,0.1-2.8,0.3
		c-0.9,0.2-1.6,0.5-2.1,1c-0.3,0.2-0.5,0.6-0.7,1.1c-0.2,0.5-0.3,1-0.5,1.7s-0.2,1.3-0.3,2.1c-0.1,0.7-0.1,1.5-0.1,2.3
		c0,1.2,0.1,2.4,0.3,3.4s0.6,2,1,2.7c0.5,0.8,1.1,1.4,2,1.8s1.8,0.7,3,0.7c1.2,0,2.2-0.1,3-0.3s1.5-0.6,2.2-1.1
		c0.3-0.2,0.5-0.6,0.7-1.1s0.4-1.1,0.5-1.7c0.1-0.6,0.2-1.3,0.3-2.1S149.6,69.7,149.6,69z"/>
	<path class="st1" d="M172.3,79l-13.9-15.3h-0.1c0,1.4,0.1,2.8,0.1,4c0,0.5,0,1,0,1.5c0,0.5,0,1,0,1.4c0,0.4,0,0.8,0,1.1
		s0,0.5,0,0.6v6.6h-1.8V59.1h1.2l13.9,15.3h0c0-1.3,0-2.6-0.1-3.7c0-0.5,0-1,0-1.5c0-0.5,0-1,0-1.4c0-0.4,0-0.8,0-1.2s0-0.6,0-0.8
		v-6.5h1.8V79H172.3z"/>
	<path class="st1" d="M188.1,70l0.6-0.1c0.7-0.1,1.3-0.3,2-0.5s1.2-0.5,1.6-0.8s0.8-0.9,1.1-1.5s0.4-1.4,0.4-2.4
		c0-0.7-0.1-1.4-0.3-1.9c-0.2-0.5-0.6-1-1-1.3c-0.4-0.3-0.9-0.6-1.5-0.8c-0.6-0.2-1.2-0.3-1.9-0.3c-0.4,0-0.7,0-1,0
		c-0.3,0-0.6,0-1,0.1v18.3h-2.7V59.3c0.8-0.1,1.7-0.1,2.7-0.2c1,0,1.9-0.1,2.9-0.1c1.1,0,2.1,0.1,3,0.4c0.8,0.3,1.5,0.6,2.1,1.1
		c0.6,0.5,1,1,1.2,1.7c0.3,0.7,0.4,1.4,0.4,2.3c0,0.9-0.2,1.7-0.5,2.5c-0.3,0.8-0.8,1.4-1.5,2c-0.7,0.6-1.5,1-2.6,1.3
		c-1,0.3-2.3,0.5-3.7,0.5h-0.2L188.1,70z"/>
	<path class="st1" d="M200.1,78.9V59.2h2.7v18.2h7.5l-0.2,1.5H200.1z"/>
	<path class="st1" d="M226.2,78.9l-2.5-7.2l-7.6,0.1l-2.7,7.1h-2l7.8-19.5l2.3-0.7l7.3,20.2H226.2z M223.3,70.4l-3.3-9.2l-3.4,9.2
		H223.3z"/>
	<path class="st1" d="M247.1,79l-13.9-15.3h-0.1c0,1.4,0.1,2.8,0.1,4c0,0.5,0,1,0,1.5c0,0.5,0,1,0,1.4c0,0.4,0,0.8,0,1.1
		s0,0.5,0,0.6v6.6h-1.8V59.1h1.2l13.9,15.3h0c0-1.3,0-2.6-0.1-3.7c0-0.5,0-1,0-1.5c0-0.5,0-1,0-1.4c0-0.4,0-0.8,0-1.2s0-0.6,0-0.8
		v-6.5h1.8V79H247.1z"/>
</g>
</svg>
