<?xml version="1.0" encoding="utf-8"?>
<!-- Generator: Adobe Illustrator 22.0.0, SVG Export Plug-In . SVG Version: 6.00 Build 0)  -->
<svg version="1.1" id="Layer_1" xmlns="http://www.w3.org/2000/svg" xmlns:xlink="http://www.w3.org/1999/xlink" x="0px" y="0px"
	 viewBox="0 0 250.8 98.6" style="enable-background:new 0 0 250.8 98.6;" xml:space="preserve">
<style type="text/css">
	.st0{fill:#656B8D;}
	.st1{fill:#74AFCD;}
</style>
<g>
	<path class="st0" d="M32.4,19.2c0-0.2,0.1-0.4,0.3-0.4l4.3-0.2c0.3,0,0.5,0.1,0.6,0.3l6.8,13.7l0.1,0L50,18.4
		c0.1-0.3,0.3-0.4,0.6-0.4l4.2-0.2c0.2,0,0.4,0.1,0.4,0.3l1.1,23.7c0,0.2-0.1,0.4-0.3,0.4l-4.1,0.2c-0.2,0-0.4-0.1-0.4-0.3
		l-0.7-13.8l-0.1,0l-4,10.5c-0.1,0.3-0.3,0.5-0.7,0.5l-2.5,0.1c-0.3,0-0.5-0.1-0.7-0.4l-5-10.1l-0.1,0l0.7,13.8
		c0,0.2-0.1,0.4-0.3,0.4l-4.1,0.2c-0.2,0-0.4-0.1-0.4-0.3L32.4,19.2z"/>
	<path class="st0" d="M62.5,17.8c0-0.2,0.1-0.4,0.3-0.4l15.7-0.7c0.2,0,0.4,0.1,0.4,0.3l0.2,3.8c0,0.2-0.1,0.4-0.3,0.4l-10.5,0.5
		c-0.1,0-0.2,0.1-0.2,0.2l0.2,4.9c0,0.1,0.1,0.2,0.2,0.2l8.8-0.4c0.2,0,0.4,0.1,0.4,0.3l0.2,3.8c0,0.2-0.1,0.4-0.3,0.4l-8.8,0.4
		c-0.1,0-0.2,0.1-0.2,0.2l0.2,5.1c0,0.1,0.1,0.2,0.2,0.2l10.5-0.5c0.2,0,0.4,0.1,0.4,0.3l0.2,3.8c0,0.2-0.1,0.4-0.3,0.4L64,41.9
		c-0.2,0-0.4-0.1-0.4-0.3L62.5,17.8z"/>
	<path class="st0" d="M85.3,37.9c-0.2-0.1-0.2-0.4-0.1-0.6l2.6-3.3c0.1-0.2,0.4-0.2,0.5-0.1c1.7,1.2,3.9,2.3,6.5,2.2
		c2.6-0.1,3.9-1.4,3.9-3.1c-0.1-1.4-1-2.3-3.9-2.6l-1.3-0.1c-5-0.4-7.9-2.7-8.1-7c-0.2-4.5,3-7.6,8.3-7.9c3.2-0.2,6.3,0.7,8.4,2.2
		c0.2,0.1,0.3,0.3,0.1,0.5l-2,3.4c-0.1,0.2-0.3,0.2-0.5,0.1c-1.9-1.1-3.8-1.7-5.8-1.6c-2.2,0.1-3.2,1.3-3.1,2.8
		c0.1,1.4,1.1,2.3,3.9,2.5l1.3,0.1c5.1,0.4,7.8,2.6,8,7s-2.9,7.9-9.2,8.2C91.1,41,87.3,39.7,85.3,37.9z"/>
</g>
<path class="st1" d="M23.3,64.2c-0.7,3.2-2.4,6.2-4.7,8.5c-1.9,1.9-3.9,3-5.6,3.1c-0.3,0-0.6,0-0.9-0.1c-0.8-0.2-3.1-1-2.4-5
	c0.1-0.8,0.9-1.3,1.6-1.2c0.8,0.1,1.3,0.9,1.2,1.6c-0.1,1,0,1.4,0,1.6c0.1,0.1,0.1,0.1,0.2,0.1c0.5,0.1,2-0.4,3.8-2.3
	c1.9-1.9,3.3-4.5,3.9-7.1c0.4-1.8,0.2-2.9,0.1-3.6c-0.2-0.6-0.6-1-1.1-1.2c-1-0.3-2.5,0.3-3.9,1.6c-1.4,1.2-3.5,3.7-5.3,8.3
	c-0.1,0.2-0.2,0.3-0.3,0.4l-1.4,5.9c-0.2,0.6-0.7,1.1-1.3,1.1c-0.1,0-0.2,0-0.4,0c-0.8-0.2-1.2-1-1.1-1.7l7.2-31.1
	c0.2-0.8,1-1.2,1.7-1.1c0.8,0.2,1.2,1,1.1,1.7l-3.7,15.7c0.5-0.5,1-1,1.4-1.4c1.1-1,2.2-1.6,3.4-2c1.1-0.4,2.3-0.4,3.3-0.2
	c1.4,0.5,2.4,1.5,2.9,3C23.8,60.5,23.8,62.2,23.3,64.2z"/>
<path class="st1" d="M27.2,73.3c-1-1-1.5-2.5-1.6-4.2c-0.1-2.1,0.6-4.6,1.7-6.8c0.5-1,1.2-1.9,1.9-2.6c0.6-0.5,1.2-0.9,1.8-1.1
	c0.1-0.2,0.2-0.5,0.3-0.7c1-1.9,2.5-3,4.3-3c1.6-0.1,2.9,0.8,3.9,2.4c0.7,1.3,1.1,2.9,1.2,4.8c0.1,2-0.2,4-0.7,5.8
	c1.2-0.4,2.4-1,3.5-1.8c1.5-1.1,2.4-2.1,2.4-2.2c0.5-0.6,1.4-0.7,2-0.2c0.6,0.5,0.7,1.4,0.2,2c-0.2,0.2-3.9,4.8-9.6,5.4
	c-0.7,1-1.4,1.8-2.3,2.5c-1.3,0.9-2.7,1.4-4.2,1.4C29.5,75.1,28,74.2,27.2,73.3z M29.9,63.7c-0.9,1.7-1.4,3.7-1.3,5.3
	c0,0.7,0.2,1.7,0.8,2.4c0.6,0.6,1.4,0.8,2.5,0.7c1.2-0.1,2.2-0.5,3.1-1.3c-1.1-0.4-2.1-1.1-2.9-2.1c-1.1-1.3-1.7-3.2-1.8-5.3l0-0.4
	L29.9,63.7z M33.1,63.3c0.1,1.4,0.5,2.8,1.2,3.6c0.6,0.8,1.4,1.2,2.4,1.3c0.8-1.8,1.2-4,1.1-6.1c-0.1-2.5-1-4.5-2-4.4
	c-0.9,0-1.7,0.9-2.2,2.2c0,0.2-0.1,0.4-0.2,0.6C33.2,61.3,33.1,62.3,33.1,63.3z"/>
<path class="st1" d="M44.4,74.3c-0.7-0.3-1.1-1-0.9-1.7c0,0,2.3-8.2,5-17.3c0.3-0.7,1-1.2,1.8-1c0.7,0.3,1.2,1,1,1.8
	c-0.5,1.8-1.1,3.5-1.5,5.2c1-1.6,2-2.9,2.9-4c1.8-2.2,3.4-3.3,4.8-3.4c1.2-0.1,1.8,0.4,2.2,0.9c1.2,1.4,0.7,3.7,0,7.5
	c-0.2,0.6-0.3,1.3-0.4,1.9c-0.4,1.9-0.6,3.3-0.7,4.5c-0.1,1.4,0.1,1.8,0.2,2c0.2,0.1,0.6,0.2,0.8,0.2c1.1-0.1,2.8-1.4,4.4-3.7
	c1.4-1.9,2.5-3.9,2.5-4c0.4-0.7,1.2-1,1.9-0.6c0.7,0.4,1,1.2,0.6,1.9c0,0.1-1.1,2.2-2.7,4.4c-0.9,1.3-1.9,2.4-2.8,3.1
	c-1.3,1.1-2.6,1.7-3.8,1.8c-1.3,0.1-2.4-0.3-3.1-1.2c-1.6-1.8-0.9-5.1-0.2-8.8l0.4-2c0.3-1.4,0.5-2.6,0.6-3.5
	c0.1-0.7,0.1-1.1,0.1-1.3c-0.5,0.2-2.5,1.3-6.6,8.2c-2.6,4.3-4.6,8.5-4.6,8.6c-0.3,0.5-0.7,0.8-1.3,0.8
	C44.7,74.4,44.6,74.4,44.4,74.3z"/>
<path class="st1" d="M65,73.3c-0.7-0.3-1.1-1-0.9-1.7c0,0,2.3-8.2,5-17.3c0.3-0.7,1-1.2,1.8-1c0.7,0.3,1.2,1,1,1.8
	c-0.5,1.8-1.1,3.5-1.5,5.2c1-1.6,2-2.9,2.9-4c1.8-2.2,3.4-3.3,4.8-3.4c1.2-0.1,1.8,0.4,2.2,0.9c1.2,1.4,0.7,3.7,0,7.5
	c-0.2,0.6-0.3,1.3-0.4,1.9c-0.4,1.9-0.6,3.3-0.7,4.5c-0.1,1.4,0.1,1.8,0.2,2c0.2,0.1,0.6,0.2,0.8,0.2c1.1-0.1,2.8-1.4,4.4-3.7
	c1.4-1.9,2.5-3.9,2.5-4c0.4-0.7,1.2-1,1.9-0.6c0.7,0.4,1,1.2,0.6,1.9c0,0.1-1.1,2.2-2.7,4.4c-0.9,1.3-1.9,2.4-2.8,3.1
	c-1.3,1.1-2.6,1.7-3.8,1.8c-1.3,0.1-2.4-0.3-3.1-1.2c-1.6-1.8-0.9-5.1-0.2-8.8l0.4-2c0.3-1.4,0.5-2.6,0.6-3.5
	c0.1-0.7,0.1-1.1,0.1-1.3c-0.5,0.2-2.5,1.3-6.6,8.2c-2.6,4.3-4.6,8.5-4.6,8.6c-0.3,0.5-0.7,0.8-1.3,0.8C65.3,73.4,65.1,73.4,65,73.3
	z"/>
<path class="st1" d="M141.2,67.7c-0.7-0.8-1.2-2-1.3-3.5c-0.8,1.1-1.6,2.1-2.5,2.9c-1.1,1-2.1,1.6-3.2,2c-1.1,0.4-2.2,0.5-3.2,0.2
	c-1.4-0.4-2.4-1.5-2.9-3c-0.5-1.4-0.4-3.2,0-5.1c0.7-3.2,2.4-6.2,4.7-8.5c2.2-2.2,4.6-3.3,6.5-3c0.7,0.2,3.1,1,2.4,5
	c-0.1,0.8-0.9,1.3-1.6,1.2c-0.8-0.1-1.3-0.9-1.2-1.6c0.1-1,0-1.4,0-1.6c-0.1-0.1-0.1-0.1-0.2-0.1c-0.5-0.1-2.1,0.4-3.8,2.2
	c-1.9,1.9-3.3,4.5-3.9,7.2c-0.6,2.5-0.2,4.4,0.9,4.8c0.7,0.2,2-0.1,3.7-1.6c1.3-1.3,3.3-3.7,5.2-8.4c0.3-0.7,1-1.1,1.7-0.9
	c0.7,0.3,1.2,1,1,1.7c-1.1,4.9-0.7,7.5,0,8.3c0.2,0.2,0.4,0.4,0.9,0.3c1.2-0.1,2.8-1.4,4.5-3.7c1.5-2,2.5-3.9,2.5-4
	c0.4-0.7,1.3-1,1.9-0.6c0.7,0.4,1,1.3,0.6,1.9c0,0.1-1.1,2.2-2.8,4.4c-0.9,1.3-2,2.4-2.9,3.2c-1.3,1.1-2.6,1.7-3.8,1.7
	C143,69.1,141.9,68.6,141.2,67.7z"/>
<path class="st1" d="M152.3,66c-0.9-1-1.9-2.8-1.4-5.8c0.4-3,1.8-6,3.8-8.3c1.9-2.2,4.2-3.5,6.1-3.6c1.6-0.1,3,1,3.5,2.8
	c0.3,0.9,0.2,2.1,0,3.1c-0.3,1.2-1,2.2-1.9,2.6c-0.7,0.4-1.6,0.1-2-0.6c-0.4-0.7-0.1-1.6,0.6-2c0.4-0.2,0.8-1.4,0.5-2.5
	c-0.2-0.7-0.5-0.7-0.6-0.7c-0.9,0-2.4,0.7-4.1,2.6c-1.6,1.9-2.7,4.3-3.1,6.8c-0.2,1.5,0,2.7,0.7,3.5c0.8,0.9,2.3,1.3,4.2,1.2
	c2.7-0.1,5.3-1.5,7.5-3.9c1.7-1.9,2.6-3.8,2.6-3.8c0.4-0.7,1.2-1.1,1.9-0.7c0.7,0.4,1,1.2,0.7,1.9c0,0.1-1,2.3-3.1,4.5
	c-2.7,3-6,4.7-9.5,4.9C156,68.3,153.7,67.6,152.3,66z"/>
<path class="st1" d="M182.3,45.1l-7.9,2c-1.4,3.9-0.9,2.8-1.6,5.8c-0.8,3-1.2,5.4-1.3,7.4c-0.2,2.6,0.3,3.6,0.6,4.1
	c0.2,0.2,0.5,0.5,1.2,0.5c1.2-0.1,2.8-1.4,4.4-3.7c1.4-1.9,2.5-3.9,2.5-3.9c0.4-0.7,1.2-1,1.9-0.7c0.7,0.4,1,1.3,0.6,1.9
	c0,0.1-1.1,2.2-2.7,4.4c-0.9,1.3-1.9,2.4-2.8,3.2c-1.3,1.1-2.6,1.7-3.8,1.7c-2,0.1-3.1-0.9-3.7-1.7c-1.6-2.3-1.5-6.7,0.3-13.9
	c0.7-2.8,0.1-1.4,1-4.2l-1.5,0.4l-0.3,0c-0.7,0-1.3-0.4-1.4-1.1c-0.2-0.8,0.3-1.6,1-1.7l3.4-0.9c0.7-2,1.5-3.9,2.1-5.5
	c0.3-0.7,1.1-1.1,1.8-0.9c0.8,0.3,1.2,1.1,0.9,1.9l-1.4,3.6l6-1.5c0.8-0.2,1.6,0.3,1.8,1.1C183.6,44.1,183.1,44.9,182.3,45.1z"/>
<path class="st1" d="M181.2,65.6c-1.2-1.5-1.5-3.9-1.1-7.3c0.3-2.7,0.1-0.1,1.3-4.1c0.2-0.8,1-1.2,1.8-1c0.8,0.3,1.2,1,1,1.8
	c-0.4,1.2-2.9,8.5-0.3,8.8c2.1,0.2,4.1-1.7,5.3-3.2c1.4-2,2.5-4,2.5-4c0.4-0.7,1.3-1,1.9-0.7c0.7,0.4,1,1.3,0.7,1.9
	c0,0.1-1.1,2.2-2.7,4.4c-0.9,1.3-1.9,2.4-2.8,3.2c-1.3,1.1-2.6,1.7-3.8,1.7C182.8,67.2,181.7,66.4,181.2,65.6z M183.4,50.2
	c-0.8,0.1-1.3-0.5-1.1-1.3c0.2-0.8,1-1.5,1.9-1.6c0.8-0.1,1.3,0.5,1.1,1.3S184.2,50.1,183.4,50.2z"/>
<path class="st1" d="M192.5,64.9c-1-1-1.5-2.5-1.6-4.2c-0.1-2.1,0.6-4.6,1.7-6.8c0.5-1,1.2-1.9,1.9-2.6c0.6-0.5,1.2-0.9,1.8-1.1
	c0.1-0.2,0.2-0.5,0.3-0.7c1-1.9,2.5-3,4.3-3c1.6-0.1,2.9,0.8,3.9,2.4c0.7,1.3,1.1,2.9,1.2,4.8c0.1,2-0.2,4-0.7,5.8
	c1.2-0.4,2.4-1,3.5-1.8c1.5-1.1,2.4-2.1,2.4-2.2c0.5-0.6,1.4-0.7,2-0.2c0.6,0.5,0.7,1.4,0.2,2c-0.2,0.2-3.9,4.8-9.6,5.4
	c-0.7,1-1.4,1.8-2.3,2.5c-1.3,0.9-2.7,1.4-4.2,1.4C194.7,66.7,193.2,65.7,192.5,64.9z M195.1,55.2c-0.9,1.7-1.4,3.7-1.3,5.3
	c0,0.7,0.2,1.7,0.8,2.4c0.6,0.6,1.4,0.8,2.5,0.7c1.2-0.1,2.2-0.5,3.1-1.3c-1.1-0.4-2.1-1.1-2.9-2.1c-1.1-1.3-1.7-3.2-1.8-5.3l0-0.4
	L195.1,55.2z M198.3,54.8c0.1,1.4,0.5,2.8,1.2,3.6c0.6,0.8,1.4,1.2,2.4,1.3c0.8-1.8,1.2-4,1.1-6.1c-0.1-2.5-1-4.5-2-4.4
	c-0.9,0-1.7,0.9-2.2,2.2c0,0.2-0.1,0.4-0.2,0.6C198.4,52.9,198.3,53.8,198.3,54.8z"/>
<path class="st1" d="M234.5,63.7c-1.1-0.7-1.7-1.8-1.8-3.1c0-0.8,0.6-1.5,1.4-1.5c0.8,0,1.5,0.6,1.5,1.4c0,1,1.4,1.2,2.2,1.2
	c1.3-0.1,2.7-0.7,3.6-1.8c1.2-1.3,1.8-3.2,1.7-5.5c-0.1-2.2-1.9-3.6-3.7-5.1l-1.4-1.1c-0.4,1.1-1,2.6-2,4.6
	c-1.8,3.6-6,12.2-11.1,12.5c-1.3,0.1-2.4-0.3-3.1-1.2c-1.6-1.8-0.9-5.1-0.2-8.8l0.4-2c0.3-1.4,0.5-2.6,0.6-3.5
	c0.1-0.7,0.1-1.1,0.1-1.3c-0.5,0.2-2.5,1.3-6.6,8.2c-2.6,4.3-4.6,8.5-4.6,8.6c-0.3,0.5-0.7,0.8-1.3,0.8c-0.2,0-0.4,0-0.6-0.1
	c-0.7-0.3-1.1-1-0.9-1.7c0,0,2.3-8.2,5-17.3c0.3-0.7,1-1.2,1.8-1c0.7,0.3,1.2,1,1,1.8c-0.5,1.8-1.1,3.5-1.5,5.2c1-1.6,2-2.9,2.9-4
	c1.8-2.2,3.4-3.3,4.8-3.4c1.2-0.1,1.8,0.4,2.2,0.9c1.2,1.4,0.7,3.7,0,7.5c-0.2,0.6-0.3,1.3-0.4,1.9c-0.4,1.9-0.6,3.3-0.7,4.5
	c-0.1,0.9-0.2,2.2,1.1,2.1c3.1-0.1,7-7.7,8.6-10.9c2.4-4.6,2.5-6.2,2.5-6.6c0-0.7,0.5-1.4,1.2-1.5c0.7-0.1,1.4,0.4,1.6,1.1
	c0.2,0.8,1.3,1.7,2.5,2.6c2.1,1.6,4.6,3.6,4.8,7.2c0.2,3.9-1.2,6.3-2.4,7.6c-1.5,1.6-3.5,2.6-5.6,2.7
	C236.7,64.6,235.5,64.2,234.5,63.7z"/>
<path class="st1" d="M119.4,60c-0.2-3.6-2.8-5.5-4.8-7.2c-1.2-0.9-2.2-1.8-2.5-2.6c-0.2-0.7-0.9-1.2-1.6-1.1
	c-0.8,0.1-1.3,0.8-1.2,1.5c0,0.4-0.1,1.9-2.5,6.6c-2,4.1-4.3,8.8-8.6,10.9c-1.1,0.5-2.3,0.8-3.5,0.9c0,0-0.1,0-0.1,0
	c-1.9,0.1-3.9-0.3-4.8-2.1c1.6-0.2,3.1-0.7,4.5-1.5c0.2-0.1,0.5-0.3,0.7-0.4c1-0.6,1.9-1.4,2.6-2.3c0.5-0.6,1-1.2,1.4-1.9
	c1.6-2.6,2-5.2,1.2-7c-0.4-0.8-1.1-1.4-1.9-1.7c-0.6-0.2-1.2-0.2-1.9-0.1c-1.9,0.3-4.1,1.7-5.9,3.7c-2.1,2.3-3.4,5.2-3.8,8.2
	c-0.2,1.2-0.1,2.2,0.1,3.1c0.3,1.2,0.8,2.1,1.4,2.7c1.4,1.6,3.7,2.3,6.6,2.2c1.5-0.1,2.9-0.4,4.3-1c1.9-0.8,3.7-2.1,5.3-3.9
	c0.1-0.1,0.2-0.3,0.3-0.4c1.8-2.1,2.7-4,2.7-4.1c0-0.1,0.1-0.2,0.1-0.3c0.8-1.4,1.5-2.8,2-3.7c1-2,1.6-3.4,2-4.6l1.4,1.1
	c1.8,1.5,3.6,2.9,3.7,5.1c0.1,2.3-0.5,4.2-1.7,5.5c-1,1.1-2.3,1.7-3.6,1.8c-0.8,0-2.1-0.2-2.2-1.2c0-0.8-0.7-1.4-1.5-1.4
	c-0.8,0-1.4,0.7-1.4,1.5c0.1,1.3,0.7,2.4,1.8,3.1c0.9,0.6,2.2,0.9,3.4,0.8c2.1-0.1,4.1-1.1,5.6-2.7C118.2,66.3,119.6,63.8,119.4,60z
	 M92.7,57.6c1.2-1.4,2.4-2.1,3.3-2.5c0.3-0.1,0.6-0.2,0.8-0.2c0.1-0.1,0.2-0.1,0.2-0.1c0.4,0,0.5,0.1,0.5,0.2
	c0.3,0.7,0.1,2.4-1.1,4.2c-0.5,0.8-1,1.5-1.6,2.1c-1.5,1.4-3.3,2.3-5.3,2.6C90,61.6,91.1,59.4,92.7,57.6z"/>
</svg>
