<?xml version="1.0" encoding="utf-8"?>
<!-- Generator: Adobe Illustrator 22.0.0, SVG Export Plug-In . SVG Version: 6.00 Build 0)  -->
<svg version="1.1" id="Layer_1" xmlns="http://www.w3.org/2000/svg" xmlns:xlink="http://www.w3.org/1999/xlink" x="0px" y="0px"
	 viewBox="0 0 335.5 388.1" style="enable-background:new 0 0 335.5 388.1;" xml:space="preserve">
<style type="text/css">
	.st0{opacity:8.000000e-02;fill:#70CAF2;enable-background:new    ;}
	.st1{fill:url(#Path_2_1_);}
	.st2{fill:#C5EDFF;}
	.st3{fill:url(#Path_4_1_);}
	.st4{fill:url(#Path_6_1_);}
	.st5{fill:#55A4C6;}
	.st6{fill:#2AA0D3;}
	.st7{fill:#75AECC;}
	.st8{fill:url(#Path_12_1_);}
	.st9{fill:url(#Path_13_1_);}
	.st10{fill:url(#Path_14_1_);}
	.st11{opacity:0.62;fill:url(#Path_15_1_);enable-background:new    ;}
	.st12{opacity:0.5;fill:#085B7F;enable-background:new    ;}
	.st13{fill:url(#Path_17_1_);}
	.st14{fill:url(#Path_18_1_);}
	.st15{fill:url(#Path_19_1_);}
	.st16{opacity:0.62;fill:url(#Path_20_1_);enable-background:new    ;}
	.st17{fill:#085B7F;}
	.st18{fill:url(#Path_23_1_);}
	.st19{fill:url(#Path_24_1_);}
	.st20{opacity:0.62;fill:url(#Path_25_1_);enable-background:new    ;}
	.st21{opacity:0.3;fill:#FFFFFF;enable-background:new    ;}
	.st22{fill:url(#Path_28_1_);}
	.st23{opacity:0.36;fill:#FFFFFF;enable-background:new    ;}
	.st24{fill:url(#Path_30_1_);}
	.st25{opacity:0.38;}
	.st26{fill:#FFFFFF;}
	.st27{opacity:0.81;fill:url(#Path_34_1_);enable-background:new    ;}
</style>
<g id="Group_7" transform="translate(0 0.102)">
	<path id="Path_1" class="st0" d="M5.4,189.2c-3.2-69.6,94.8-157,179.1-142.5c89.1,15.3,167.3,208.8,82.8,274
		C182.9,385.9,8.6,259.8,5.4,189.2z"/>
	
		<linearGradient id="Path_2_1_" gradientUnits="userSpaceOnUse" x1="-85.5416" y1="448.2687" x2="-85.5416" y2="449.1957" gradientTransform="matrix(90.7755 0 0 -143.1 8005.3672 64547.3047)">
		<stop  offset="0" style="stop-color:#085B7F"/>
		<stop  offset="1" style="stop-color:#75AECC"/>
	</linearGradient>
	<path id="Path_2" class="st1" d="M194.9,207.7c0,0,2.4-78,87.7-122.9c0,0,24.9,71.5-67,143.1L194.9,207.7z"/>
	<path id="Path_3" class="st2" d="M279.3,91.5L207.4,211l-6.5-18.1C200.9,192.9,209.2,123,279.3,91.5z"/>
	
		<radialGradient id="Path_4_1_" cx="-87.2791" cy="450.4365" r="0.569" gradientTransform="matrix(-101.3613 -33.642 33.6343 -101.3532 -23359.9863 42956.6602)" gradientUnits="userSpaceOnUse">
		<stop  offset="0" style="stop-color:#2792C1"/>
		<stop  offset="1" style="stop-color:#75AECC"/>
	</radialGradient>
	<path id="Path_4" class="st3" d="M130.5,218.5c0,0,20.2-69.3-48.3-106.8c0,0-29.3,63,39.3,104.3L130.5,218.5z"/>
	<path id="Path_5" class="st2" d="M82.2,111.7l48.3,106.8l-10.3-6C120.2,212.4,61.9,177.8,82.2,111.7z"/>
	
		<radialGradient id="Path_6_1_" cx="-84.1063" cy="450.0695" r="0.913" gradientTransform="matrix(42.3785 10.9841 10.999 -42.3609 -1247.9763 20208.9531)" gradientUnits="userSpaceOnUse">
		<stop  offset="0" style="stop-color:#2792C1"/>
		<stop  offset="1" style="stop-color:#75AECC"/>
	</radialGradient>
	<path id="Path_6" class="st4" d="M219.7,197c0,0,13.5-45.4,64.7-41.7c0,0-6.3,45.2-58.9,43.5L219.7,197z"/>
	<path id="Path_7" class="st2" d="M284.4,155.3L219.7,197l7.8,0.4C227.5,197.4,272.1,199.1,284.4,155.3z"/>
	<path id="Path_8" class="st5" d="M0,123.2l20.5-31.4l10.9,7.5L9.6,128.7L0,123.2z"/>
	<path id="Path_9" class="st6" d="M250.5,77l-14.4,19.3l-6.1-5l13.2-17.8L250.5,77z"/>
	<path id="Path_10" class="st6" d="M127.8,103.4l-23.4,5.8l-1.6-7.7l21.5-5.5L127.8,103.4z"/>
	<path id="Path_11" class="st7" d="M173.6,66.2l-2.5-29.3l10.1-6l7.8,35.7L173.6,66.2z"/>
	<g id="Group_2">
		<g id="Group_1">
			
				<radialGradient id="Path_12_1_" cx="-85.5493" cy="449.5788" r="0.57" gradientTransform="matrix(86.4612 -9.396 -9.4005 -86.478 11693.8789 38348.5195)" gradientUnits="userSpaceOnUse">
				<stop  offset="0" style="stop-color:#75AECC"/>
				<stop  offset="1" style="stop-color:#3395C1"/>
			</radialGradient>
			<path id="Path_12" class="st8" d="M102,269.3l-1.2,1.8l5.8,22.4c0.1,0.3,0.1,0.7,0.2,1c0.8,4.7,0.9,9.4,0.2,14.1l-2.5-0.7
				l-16.8-4.6l-17.4-4.8L36.5,316c-1.1-2.2-2.6-9.6-2.8-15.5V300l1-22.1l-1.4-1.4L7.6,251.3c-1.3-4.1-2.1-6.5-1.1-10.2l37-3.9
				l15-1.6l25.2-2.7l36.9-3.9c1.3,3,2,5.3,1.1,10.2L102,269.3z"/>
			
				<radialGradient id="Path_13_1_" cx="-85.7747" cy="449.7886" r="0.5" gradientTransform="matrix(111.378 -12.096 -12.084 -111.328 15057.6416 49294.9414)" gradientUnits="userSpaceOnUse">
				<stop  offset="0" style="stop-color:#75AECC"/>
				<stop  offset="1" style="stop-color:#3395C1"/>
			</radialGradient>
			<path id="Path_13" class="st9" d="M102.1,269.7c-0.4,0.4-0.8,0.9-1.3,1.4l4.5,27.6l1.6,10H104c-1.6-0.1-3.3-0.2-4.9-0.5
				c-1.1-0.1-2.1-0.3-3.2-0.6c-0.7-0.2-1.5-0.3-2.3-0.5c-0.8-0.2-1.7-0.4-2.5-0.7c-0.8-0.2-1.7-0.5-2.5-0.7c-0.1,0-0.2,0-0.3-0.1
				c-0.3-0.1-0.5-0.2-0.8-0.3c-6.3-2-12-4.6-17.4-6.8c-10.5,7.8-19.6,12-33.8,17.5L36,306l-1.3-27.9c-0.5-0.3-0.9-0.7-1.4-1
				c-11.1-8.3-19.7-15.4-25.6-25.7l4.6-1.7l31-11.7l0.3-0.6l8-15.9l8.8-17.5l23.3,29l0.4,0.5l32.1,4.9l5.5,0.8
				C116.6,252.1,111.2,259.5,102.1,269.7z"/>
			
				<radialGradient id="Path_14_1_" cx="-85.8501" cy="450.0898" r="0.574" gradientTransform="matrix(111.7744 -12.1409 -12.0899 -111.7409 15096.9834 49466.2461)" gradientUnits="userSpaceOnUse">
				<stop  offset="0" style="stop-color:#99E0FF"/>
				<stop  offset="1" style="stop-color:#75AECC"/>
			</radialGradient>
			<path id="Path_14" class="st10" d="M116.3,238.4c-6.1,9.6-16.5,22.5-16.5,22.5s1,3.5,2.3,8.4c0,0.1,0.1,0.3,0.1,0.4
				c2,7.8,4.6,19,4.7,24.8c0,2.1-0.2,3.5-0.9,3.9c-0.1,0.1-0.3,0.2-0.5,0.2c-1,0.2-2.1,0.3-3.2,0.1h-0.2c-0.6-0.1-1.2-0.2-1.9-0.3
				c-0.9-0.2-1.9-0.4-2.9-0.6c-2.8-0.7-5.9-1.6-9.1-2.6l0,0c-7.7-2.5-15.5-5.5-18-6.5c-0.3-0.1-0.6-0.2-0.9-0.4
				c0,0-26.9,18.1-33.3,17.7c-0.2,0-0.4,0-0.6-0.1c-0.8-0.3-1.4-2.5-1.7-5.7v-0.1c-0.7-6.1-0.6-15.9-0.4-23.1v-0.4
				c0.1-5.1,0.3-8.8,0.3-8.8s-13.4-10.2-21.4-18.3c-3.5-3.6-6-6.8-5.7-8.4c0.8-4.7,35.6-13.5,35.6-13.5s2.4-6.6,5.5-14v-0.1
				c3.9-9.2,8.9-19.6,11.5-19.9c5.2-0.6,23.8,29.7,23.8,29.7s37.2,2.2,37.6,5.8C120.8,230.7,118.9,234.3,116.3,238.4z"/>
		</g>
		
			<linearGradient id="Path_15_1_" gradientUnits="userSpaceOnUse" x1="-84.5443" y1="447.3931" x2="-83.6133" y2="447.3931" gradientTransform="matrix(35.5 0 0 -20.3 3070.6006 9380.5518)">
			<stop  offset="0" style="stop-color:#A0DEF9"/>
			<stop  offset="1" style="stop-color:#91AFBC"/>
		</linearGradient>
		<path id="Path_15" class="st11" d="M104.6,308.6h-0.5c-1.6,0-3.3-0.2-4.9-0.5c-1.1-0.1-2.1-0.3-3.2-0.6c-0.7-0.2-1.5-0.3-2.3-0.5
			c-0.8-0.2-1.7-0.4-2.5-0.7c-0.8-0.2-1.7-0.5-2.5-0.7c-0.1,0-0.2,0-0.3-0.1c-0.2-0.1-0.5-0.1-0.8-0.2l0,0c-6-1.9-11.8-4.1-17.4-6.8
			l-1.1-10.2c0.3,0.1,0.6,0.2,0.9,0.4c2.5,1.1,10,4.2,18,6.7c3,1,6,1.8,9.1,2.4c1,0.2,1.9,0.4,2.9,0.6c0.6,0.1,1.3,0.2,1.9,0.3h0.2
			c0.2,0,0.3,0.1,0.5,0.1l1.8,9.1L104.6,308.6z"/>
	</g>
	<path id="Path_16" class="st12" d="M121.7,239.3c-5.1,12.8-10.5,20.3-19.6,30.4c2,7.8,4.6,19,4.7,24.8c0.8,4.7,0.9,9.4,0.2,14.1
		h-2.9c-1.6,0-3.3-0.2-4.9-0.5c-1.1-0.1-2.1-0.3-3.2-0.6c-0.7-0.2-1.5-0.3-2.3-0.5c-0.8-0.2-1.7-0.4-2.5-0.7
		c-0.8-0.2-1.7-0.5-2.5-0.7c-0.1,0-0.2,0-0.3-0.1c-0.2-0.1-0.5-0.1-0.8-0.2l0,0l0.1-2l0.4-7.9v-0.2l0,0l-29.6-59.6l-7.1-14.3
		l-3.8-7.7v-0.1c3.9-9.2,8.9-19.6,11.5-19.9c5.2-0.6,23.8,29.7,23.8,29.7s37.2,2.2,37.6,5.8C122,232.1,122.6,234.5,121.7,239.3z"/>
	<g id="Group_4">
		<g id="Group_3">
			
				<radialGradient id="Path_17_1_" cx="-87.5983" cy="449.7952" r="0.568" gradientTransform="matrix(-86.6933 -9.4176 9.4005 -86.6768 -11230.5518 38450.3086)" gradientUnits="userSpaceOnUse">
				<stop  offset="0" style="stop-color:#75AECC"/>
				<stop  offset="1" style="stop-color:#3395C1"/>
			</radialGradient>
			<path id="Path_17" class="st13" d="M239.6,269.3l1.2,1.8l-5.8,22.4c-0.1,0.3-0.1,0.7-0.2,1c-0.8,4.7-0.9,9.4-0.2,14.1l2.5-0.7
				l16.8-4.6l17.4-4.8l33.8,17.5c1.1-2.2,2.6-9.6,2.8-15.5V300l-1-22.1l1.4-1.4l25.6-25.4c1.3-4.1,2.1-6.5,1.1-10.2l-37-3.9l-15-1.6
				l-25.2-2.7l-36.9-3.9c-1.3,3-2,5.3-1.1,10.2L239.6,269.3z"/>
			
				<radialGradient id="Path_18_1_" cx="-87.3432" cy="449.9568" r="0.5" gradientTransform="matrix(-111.4592 -12.1068 12.1052 -111.4274 -14550.2695 49357.2188)" gradientUnits="userSpaceOnUse">
				<stop  offset="0" style="stop-color:#75AECC"/>
				<stop  offset="1" style="stop-color:#3395C1"/>
			</radialGradient>
			<path id="Path_18" class="st14" d="M239.5,269.7c0.4,0.4,0.8,0.9,1.3,1.4l-4.5,27.6l-1.6,10h2.9c1.6-0.1,3.3-0.2,4.9-0.5
				c1.1-0.1,2.1-0.3,3.2-0.6c0.7-0.2,1.5-0.3,2.3-0.5c0.8-0.2,1.7-0.4,2.5-0.7c0.8-0.2,1.7-0.5,2.5-0.7c0.1,0,0.2,0,0.3-0.1
				c0.3-0.1,0.5-0.2,0.8-0.3c6.3-2,12-4.6,17.4-6.8c10.5,7.8,19.6,12,33.8,17.5l0.5-10.1l1.3-27.9c0.5-0.3,0.9-0.7,1.4-1
				c11.1-8.3,19.7-15.4,25.6-25.7l-4.6-1.7l-31-11.7l-0.3-0.6l-8-15.9l-8.8-17.5L257.9,233l-0.4,0.5l-32.1,4.9l-5.5,0.8
				C225,252.1,230.4,259.5,239.5,269.7z"/>
			
				<radialGradient id="Path_19_1_" cx="-87.0447" cy="450.157" r="0.574" gradientTransform="matrix(-111.7744 -12.1409 12.0899 -111.7409 -14635.459 49481.6992)" gradientUnits="userSpaceOnUse">
				<stop  offset="0" style="stop-color:#99E0FF"/>
				<stop  offset="1" style="stop-color:#75AECC"/>
			</radialGradient>
			<path id="Path_19" class="st15" d="M225.4,238.4c6.1,9.6,16.5,22.5,16.5,22.5s-1,3.5-2.3,8.4c0,0.1-0.1,0.3-0.1,0.4
				c-2,7.8-4.6,19-4.7,24.8c0,2.1,0.2,3.5,0.9,3.9c0.1,0.1,0.3,0.2,0.5,0.2c1,0.2,2.1,0.3,3.2,0.1h0.2c0.6-0.1,1.2-0.2,1.9-0.3
				c0.9-0.2,1.9-0.4,2.9-0.6c2.8-0.7,5.9-1.6,9.1-2.6l0,0c7.7-2.5,15.5-5.5,18-6.5c0.3-0.1,0.6-0.2,0.9-0.4c0,0,26.8,17.9,33.2,17.5
				c0.2,0,0.4,0,0.6-0.1c0.8-0.3,1.4-2.5,1.7-5.7v-0.1c0.7-6.1,0.6-15.9,0.4-23.1v-0.4c-0.1-5.1-0.3-8.8-0.3-8.8
				s13.4-10.2,21.4-18.3c3.5-3.6,6-6.8,5.7-8.4c-0.8-4.7-35.6-13.5-35.6-13.5s-2.4-6.6-5.5-14v-0.1c-3.9-9.2-8.9-19.6-11.5-19.9
				c-5.2-0.6-23.8,29.7-23.8,29.7s-37.2,2.2-37.6,5.8C220.8,230.7,222.7,234.3,225.4,238.4z"/>
		</g>
		
			<linearGradient id="Path_20_1_" gradientUnits="userSpaceOnUse" x1="-78.4153" y1="447.3931" x2="-77.4843" y2="447.3931" gradientTransform="matrix(35.5 0 0 -20.3 3238.5 9380.5518)">
			<stop  offset="0" style="stop-color:#A0DEF9"/>
			<stop  offset="1" style="stop-color:#91AFBC"/>
		</linearGradient>
		<path id="Path_20" class="st16" d="M237,308.6h0.5c1.6,0,3.3-0.2,4.9-0.5c1.1-0.1,2.1-0.3,3.2-0.6c0.7-0.2,1.5-0.3,2.3-0.5
			c0.8-0.2,1.7-0.4,2.5-0.7c0.8-0.2,1.7-0.5,2.5-0.7c0.1,0,0.2,0,0.3-0.1c0.2-0.1,0.5-0.1,0.8-0.2l0,0c6-1.9,11.8-4.1,17.4-6.8
			l1.1-10.2c-0.3,0.1-0.6,0.2-0.9,0.4c-2.5,1.1-10,4.2-18,6.7c-3,1-6,1.8-9.1,2.4c-1,0.2-1.9,0.4-2.9,0.6c-0.6,0.1-1.3,0.2-1.9,0.3
			h-0.2c-0.2,0-0.3,0.1-0.5,0.1l-1.8,9.1L237,308.6z"/>
	</g>
	<g id="Group_5">
		<path id="Path_21" class="st17" d="M262.4,192.3c1.6,5,2.2,8.6,0,16l-37.8,46l5.2,35.9c0.8,8-0.5,19.2-2,23.6L172.3,292
			l-55.6,21.5c-1.4-3.7-2.4-15.3-1.8-24.6l5.4-34.9l-37.6-46.2c-1.4-6.6-2.2-10.4,0-16L262.4,192.3z"/>
		<path id="Path_22" class="st17" d="M204.8,193l57.6,15.3c-10.6,20-20.7,30.7-37.8,46l3.2,59.5c-22.2-2.1-39.9-13.6-55.4-21.8
			c-17.6,10.3-32.6,15.4-55.6,21.5l3.6-59.5c-16.8-15.6-29.8-28.4-37.6-46.2l57.6-15l32.3-50L204.8,193z"/>
		
			<linearGradient id="Path_23_1_" gradientUnits="userSpaceOnUse" x1="-86.6658" y1="450.0421" x2="-85.6648" y2="450.0421" gradientTransform="matrix(179.6958 0 0 -171.4028 15629.2354 77351)">
			<stop  offset="0" style="stop-color:#085B7F"/>
			<stop  offset="0.468" style="stop-color:#47B2E2"/>
			<stop  offset="1" style="stop-color:#7DD7FF"/>
		</linearGradient>
		<path id="Path_23" class="st18" d="M204.8,177c0,0,57.6,9.6,57.6,15.3c0,8.2-37.8,46-37.8,46s9.8,56,3.2,59.5
			c-7.3,3.9-55.4-21.8-55.4-21.8s-47.9,25.1-55.6,21.5c-5.4-2.6,3.6-59.5,3.6-59.5s-39.9-37.8-37.6-46.2c2-7.2,57.6-15,57.6-15
			s24.7-50,32.3-50C181,126.8,204.8,177,204.8,177z"/>
		
			<radialGradient id="Path_24_1_" cx="-85.7469" cy="450.6269" r="0.582" gradientTransform="matrix(128.6028 93.928 93.9084 -128.4744 -31064.0254 66174.0781)" gradientUnits="userSpaceOnUse">
			<stop  offset="0" style="stop-color:#5AC3F2"/>
			<stop  offset="1" style="stop-color:#75AECC"/>
		</radialGradient>
		<path id="Path_24" class="st19" d="M223.8,292.1c-8.7,0-39-15.2-50-21.1l-1.5-0.8l-1.5,0.8c-11,5.8-41.4,20.7-50.2,20.7h-0.1
			c-1.5-5.5,1.2-31.7,4.7-54.1l0.3-1.7l-1.2-1.2c-17-16.1-35-36.2-35.4-41.3c3.7-3.5,30.1-9.1,53-12.3l1.7-0.2l0.7-1.5
			c10.3-20.8,23.8-44.1,28.4-46.5c4.7,2.2,18.1,25.6,28,46.6l0.7,1.5l1.6,0.3c22.1,3.7,47.6,9.4,52.7,12.5
			c-2.1,5.8-19.5,25.4-35.4,41.3l-1.2,1.2l0.3,1.6c4,22.7,6.7,49.3,4.5,54.1C224.1,292.1,223.9,292.1,223.8,292.1z"/>
	</g>
	
		<linearGradient id="Path_25_1_" gradientUnits="userSpaceOnUse" x1="-85.3195" y1="448.767" x2="-84.3195" y2="448.767" gradientTransform="matrix(51.8 0 0 -37.4 4591.9004 17078.582)">
		<stop  offset="0" style="stop-color:#8B8BE0"/>
		<stop  offset="1" style="stop-color:#91AFBC"/>
	</linearGradient>
	<path id="Path_25" class="st20" d="M172.3,292v-16c0,0,30,17.3,50.4,21.9l1.4,15.5C224.1,313.3,206.1,312.3,172.3,292z"/>
	<path id="Path_26" class="st21" d="M100.2,189.4c0,0,54.7,39.4,123.9,38.9c0,0,31.4-23.4,35.8-35.2c0,0-11.8-7.1-56.3-13.2
		c0,0-13.7-34.4-31-50.6c0,0-16.6,18.5-26.8,49.8C145.8,179.1,119,180.9,100.2,189.4z"/>
	<path id="Path_27" class="st0" d="M53,53.9c4.9,9.6,86.1-12.8,94.3-28.7S114.5-3.7,92,0.8C69.6,5.4,46.7,41.5,53,53.9z"/>
	
		<radialGradient id="Path_28_1_" cx="-82.0132" cy="447.5309" r="3.96" gradientTransform="matrix(20.1028 0 0 -20.1111 1824.5424 9291.9502)" gradientUnits="userSpaceOnUse">
		<stop  offset="0" style="stop-color:#3996F7"/>
		<stop  offset="1" style="stop-color:#744FD8"/>
	</radialGradient>
	<path id="Path_28" class="st22" d="M86,305c6.7-6.6,14.7-11.8,23.6-15c0,0,59.4-11.5,132.5,0c0,0,13,7.2,17.2,15H86z"/>
	<path id="Path_29" class="st23" d="M197.8,285.9l4.7,12.5c0,0,21.1,0.8,34.1,2.8l-7.4-13.1C229.1,288.2,208.6,285.8,197.8,285.9z"
		/>
	
		<linearGradient id="Path_30_1_" gradientUnits="userSpaceOnUse" x1="-85.998" y1="449.2274" x2="-85.998" y2="450.2274" gradientTransform="matrix(173.3 0 0 -90.9556 15076.0986 41247.7266)">
		<stop  offset="0" style="stop-color:#1C257B"/>
		<stop  offset="1" style="stop-color:#4F3BBA"/>
	</linearGradient>
	<path id="Path_30" class="st24" d="M98.6,376.3c0,0-12.6-23-12.6-71.3c0,0,76.8-17.9,173.3,0c0,0,0,48.1-17.6,83l-12-11.7H98.6z"/>
	<g id="Group_6" class="st25">
		<path id="Path_31" class="st26" d="M120.8,319.8l1.4,8.7h95.3l1.5-9.4L120.8,319.8z"/>
		<path id="Path_32" class="st26" d="M122.9,333.1l1.5,7.5h44.2v-7.5H122.9z"/>
		<path id="Path_33" class="st26" d="M124.5,345.2l1.4,7.4h62.6v-7.4H124.5z"/>
	</g>
	
		<linearGradient id="Path_34_1_" gradientUnits="userSpaceOnUse" x1="-85.8988" y1="444.3117" x2="-85.8988" y2="445.3087" gradientTransform="matrix(144.7 0 0 -10.9 12597.3994 5219.2856)">
		<stop  offset="0" style="stop-color:#7460E0"/>
		<stop  offset="1" style="stop-color:#FFFFFF"/>
	</linearGradient>
	<path id="Path_34" class="st27" d="M229.7,376.3l10.5-10.8c0,0-69.6,14.5-144.7,3.8l3,7.1L229.7,376.3z"/>
</g>
</svg>
